<svg width="108" height="32" viewBox="0 0 108 32" fill="none" xmlns="http://www.w3.org/2000/svg">
<mask id="mask0_262_9" style="mask-type:luminance" maskUnits="userSpaceOnUse" x="0" y="0" width="108" height="32">
<path d="M0 0H107.667V31.388H0V0Z" fill="white"/>
</mask>
<g mask="url(#mask0_262_9)">
<path fill-rule="evenodd" clip-rule="evenodd" d="M21.356 28.931H21.129V28.644H21.309C21.405 28.644 21.537 28.654 21.537 28.776C21.537 28.908 21.47 28.931 21.356 28.931ZM21.806 28.803C21.806 28.531 21.626 28.445 21.319 28.445H20.876V29.633H21.129V29.133H21.249L21.524 29.633H21.827L21.52 29.113C21.68 29.098 21.806 29.02 21.806 28.803ZM21.313 29.889V29.886C20.876 29.889 20.522 29.548 20.522 29.038C20.522 28.531 20.876 28.193 21.312 28.193C21.74 28.193 22.105 28.531 22.105 29.038C22.105 29.548 21.74 29.889 21.313 29.889ZM21.313 27.935C20.726 27.935 20.205 28.341 20.205 29.038C20.205 29.736 20.725 30.144 21.313 30.144C21.896 30.144 22.419 29.736 22.419 29.038C22.419 28.341 21.896 27.935 21.313 27.935ZM20.171 17.495C17.108 18.45 13.254 18.407 10.35 17.129C9.82299 16.873 9.15999 16.479 8.98599 15.867C8.85299 14.747 10.058 14.124 10.876 13.713C11.356 13.503 11.846 13.27 12.378 13.241C12.874 13.605 13.392 13.897 13.904 14.225C12.911 14.489 11.721 14.715 11.263 15.802C11.342 16.625 12.277 16.888 12.925 17.092C15.268 17.714 17.799 17.633 20.047 16.815C20.469 16.565 21.14 16.267 21.081 15.655C21.011 14.999 20.259 14.708 19.731 14.501C19.4169 14.5458 19.1071 14.6171 18.805 14.714C18.645 14.26 18.507 13.801 18.315 13.364C19.311 13.626 20.302 13.897 21.333 14.078V14.1C21.1094 14.1321 20.8904 14.1912 20.681 14.276V14.313C21.266 14.606 22.075 15.087 22.083 15.853C21.945 16.781 20.929 17.203 20.171 17.494V17.495ZM14.793 23.346C14.918 21.662 14.94 20.106 15.027 18.43C15.617 18.486 16.127 18.463 16.669 18.444L16.706 18.668L16.916 23.361C16.209 23.462 15.458 23.404 14.793 23.346ZM15.551 8.09599L15.844 7.16399H15.88C16.4777 8.8766 17.0984 10.5811 17.742 12.277L16.457 12.301L16.429 12.452L16.619 17.042V17.114C16.143 17.194 15.562 17.174 15.093 17.129L15.056 17.077L15.268 12.349V12.313C14.908 12.277 14.458 12.313 14.094 12.277L15.551 8.09599ZM20.54 7.99999L20.393 7.91299L20.33 7.85499C19.4817 7.04713 18.589 6.28728 17.656 5.57899C17.176 5.17399 16.04 4.34699 15.245 4.96399L15.223 4.98099C14.23 5.68636 13.2703 6.4375 12.347 7.23199C12.287 7.27699 12.21 7.35699 12.21 7.35699L12.13 7.43699C9.53399 9.75199 7.50999 11.847 5.94399 13.842C5.94999 13.836 5.82599 13.996 5.82599 13.996C5.40299 14.542 5.01599 15.06 4.85499 15.618C4.86099 15.894 4.90299 16.112 5.00399 16.256C6.35599 18.27 8.19799 20.361 10.491 22.487L11.444 23.352C12.864 24.653 14.209 25.879 15.754 26.687C16.084 26.84 16.604 26.561 16.978 26.298C19.838 24.283 22.382 21.68 24.281 19.638L24.979 18.808C25.807 17.838 26.592 16.925 27.016 15.872C27.0235 15.8362 27.0268 15.7996 27.026 15.763C27.026 15.581 26.929 15.335 26.689 14.965C25.032 12.596 22.956 10.247 20.539 7.99999H20.54ZM27.657 16.128C27.059 17.615 25.844 18.808 24.787 20.105C22.497 22.57 20.081 24.956 17.375 26.863C16.827 27.248 16.091 27.605 15.435 27.3C13.442 26.257 11.765 24.548 10.019 22.994C7.99899 21.12 5.97099 18.936 4.43799 16.654C4.21199 16.334 4.14599 15.938 4.15299 15.515C4.35199 14.728 4.89199 14.077 5.40099 13.415C7.20999 11.11 9.42999 8.91999 11.67 6.92199C11.72 6.86899 11.814 6.75999 11.896 6.70999C12.8347 5.90139 13.8108 5.13722 14.821 4.41999C15.875 3.60099 17.191 4.27999 18.076 5.03099C19.0308 5.75479 19.9436 6.53239 20.81 7.35999L20.964 7.44799C23.307 9.62199 25.483 12.038 27.269 14.591C27.561 15.037 27.817 15.539 27.657 16.131V16.128ZM31.187 14.728L31.099 14.713C28.3889 12.8681 25.8566 10.7747 23.535 8.45999L20.922 5.73099C19.862 4.55499 18.836 3.25799 17.856 2.01899L16.669 0.332993C16.522 0.244993 16.339 0.0989933 16.179 0.0559933C15.829 -0.0970067 15.451 0.0859933 15.165 0.302993L13.012 3.10599C9.56199 7.38299 5.47499 11.372 1.01799 14.43C0.667994 14.71 0.141994 14.978 0.0339943 15.43C-0.0840057 15.838 0.127994 16.175 0.383994 16.431C3.94999 18.888 7.36599 21.806 10.399 25.135C10.939 25.703 11.379 26.265 11.905 26.798C12.794 27.98 13.838 29.169 14.655 30.438C14.909 30.708 14.954 31.145 15.355 31.278C15.669 31.388 16.055 31.461 16.355 31.278L16.652 30.976C20.347 25.746 25.03 21.048 30.261 17.254C30.788 16.786 31.788 16.614 31.801 15.744C31.7805 15.5401 31.7149 15.3433 31.6089 15.1679C31.5028 14.9925 31.3591 14.8429 31.188 14.73L31.187 14.728ZM107.667 8.76099V4.15099H89.554V27.931H107.669V23.318H96.14V18.28H106.746V13.67H96.14V8.76199H107.667V8.76099ZM67.752 27.931H85.866V23.318H74.339V18.28H84.944V13.67H74.339V8.76199H85.866V4.15199H67.752V27.931ZM45.949 27.931H64.064V23.318H52.534V18.28H63.14V13.67H52.534V8.76199H64.064V4.15199H45.949V27.931ZM35.905 27.931H42.493V4.15099H35.905V27.931Z" fill="#FAFAFA"/>
</g>
</svg>
