<svg width="65" height="69" viewBox="0 0 65 69" fill="none" xmlns="http://www.w3.org/2000/svg">
<path d="M7.98094 40.9211L11.8719 34.3771L9.17074 21.6511M9.17074 21.6511L5.76384 17.8085M9.17074 21.6511L18.0933 31.7151M18.0933 31.7151L27.8272 42.694M18.0933 31.7151L18.7196 34.7454M18.7196 34.7454L21.6738 49.0385L21.8535 49.6654L27.2991 52.684M18.7196 34.7454L13.9123 43.418L15.2024 50.7245M5.42444 14.14C6.53834 14.7574 6.94073 16.161 6.32333 17.2749C6.23883 17.4273 6.13953 17.5664 6.02843 17.6914C5.32713 18.4798 4.14994 18.7067 3.18844 18.1738C2.07454 17.5563 1.67213 16.1528 2.28953 15.0389C2.90693 13.925 4.31054 13.5226 5.42444 14.14ZM30.4249 42.2883C31.5388 42.9058 31.9413 44.3093 31.3238 45.4232C30.7064 46.5371 29.3029 46.9395 28.189 46.3221C27.0751 45.7047 26.6726 44.3011 27.2901 43.1872C27.4491 42.9004 27.6602 42.6607 27.9051 42.4735C28.6112 41.9337 29.5979 41.8299 30.4249 42.2883ZM7.89103 40.6076C6.77713 39.9901 5.37354 40.3926 4.75614 41.5065C4.13874 42.6204 4.54113 44.0239 5.65503 44.6413C6.76893 45.2588 8.17244 44.8563 8.78994 43.7424C9.35174 42.7288 9.06904 41.4753 8.17424 40.7926C8.16984 40.7892 8.16543 40.7859 8.16113 40.7826C8.15553 40.7785 8.14993 40.7743 8.14433 40.7702C8.06453 40.7113 7.98003 40.6569 7.89103 40.6076ZM16.7479 50.7902C17.8618 51.4077 18.2642 52.8112 17.6468 53.9251C17.0293 55.039 15.6258 55.4414 14.5119 54.824C13.398 54.2065 12.9956 52.803 13.613 51.6891C13.9788 51.0293 14.6204 50.6191 15.3142 50.5227C15.7917 50.4563 16.2938 50.5385 16.7479 50.7902ZM30.3222 51.9868C31.4361 52.6042 31.8385 54.0077 31.2211 55.1216C30.6036 56.2355 29.2001 56.638 28.0862 56.0205C26.9723 55.4031 26.5699 53.9996 27.1873 52.8857C27.2073 52.8496 27.2281 52.8143 27.2497 52.7797C27.8953 51.7468 29.2443 51.3893 30.3222 51.9868Z" stroke="#FAFAFA" stroke-width="2.48201"/>
<path d="M37.2323 6.20407L40.9539 12.8458L53.3256 16.8695M53.3256 16.8695L58.3569 15.8404M53.3256 16.8695L40.1486 19.5648M40.1486 19.5648L25.7737 22.5051M40.1486 19.5648L37.2112 18.592M37.2112 18.592L23.3559 14.0038L22.7231 13.846L17.3861 17.0528M37.2112 18.592L32.1041 10.0925L25.1315 7.55637M61.7036 17.3807C60.6119 18.0366 59.1952 17.6834 58.5393 16.5917C58.4495 16.4423 58.3786 16.2868 58.326 16.128C57.9938 15.1265 58.3859 13.9936 59.3282 13.4274C60.4199 12.7715 61.8366 13.1247 62.4925 14.2164C63.1485 15.308 62.7952 16.7247 61.7036 17.3807ZM24.8261 24.9576C23.7345 25.6136 22.3177 25.2603 21.6618 24.1687C21.0059 23.077 21.3591 21.6603 22.4508 21.0043C23.5424 20.3484 24.9591 20.7016 25.6151 21.7933C25.784 22.0744 25.886 22.3771 25.9257 22.6828C26.0401 23.5642 25.6367 24.4706 24.8261 24.9576ZM37.5487 6.28297C38.6404 5.62707 38.9936 4.21037 38.3376 3.11867C37.6817 2.02697 36.265 1.67377 35.1733 2.32977C34.0817 2.98567 33.7284 4.40237 34.3844 5.49407C34.9813 6.48747 36.2082 6.86937 37.2469 6.43577C37.2519 6.43367 37.257 6.43147 37.262 6.42937C37.2684 6.42667 37.2748 6.42387 37.2812 6.42107C37.372 6.38147 37.4614 6.33547 37.5487 6.28297ZM24.3018 8.86197C23.2101 9.51797 21.7934 9.16467 21.1375 8.07307C20.4815 6.98137 20.8348 5.56467 21.9264 4.90867C23.0181 4.25277 24.4348 4.60597 25.0908 5.69767C25.4793 6.34437 25.5138 7.10507 25.2503 7.75417C25.0691 8.20087 24.7468 8.59457 24.3018 8.86197ZM16.4784 20.0194C15.3868 20.6754 13.97 20.3221 13.3141 19.2305C12.6582 18.1388 13.0114 16.7221 14.1031 16.0662C15.1947 15.4102 16.6114 15.7634 17.2674 16.8551C17.2886 16.8904 17.3088 16.9261 17.3279 16.9621C17.8997 18.0377 17.5347 19.3847 16.4784 20.0194Z" stroke="#FAFAFA" stroke-width="2.48201"/>
<path d="M52.797 49.1846L45.1843 49.0869L35.5138 57.7892M35.5138 57.7892L33.8894 62.6609M35.5138 57.7892L39.7681 45.0299M39.7681 45.0299L44.4092 31.1108M39.7681 45.0299L42.0793 42.9724M42.0793 42.9724L52.9804 33.2675L53.4335 32.7983L53.3248 26.573M42.0793 42.9724L51.9936 42.7994L57.6763 38.0289M30.8822 64.7891C30.8599 63.5157 31.8742 62.4655 33.1476 62.4432C33.3218 62.4402 33.4919 62.4566 33.6558 62.4903C34.6892 62.7035 35.4743 63.6095 35.4935 64.7086C35.5157 65.982 34.5014 67.0323 33.2281 67.0545C31.9547 67.0768 30.9044 66.0625 30.8822 64.7891ZM42.7591 29.0638C42.7368 27.7905 43.7511 26.7402 45.0245 26.7179C46.2978 26.6957 47.3481 27.71 47.3704 28.9834C47.3926 30.2567 46.3783 31.307 45.105 31.3293C44.777 31.335 44.4639 31.272 44.1793 31.1535C43.3588 30.8119 42.7756 30.0093 42.7591 29.0638ZM52.5704 49.4192C52.5927 50.6926 53.643 51.7069 54.9163 51.6846C56.1897 51.6624 57.204 50.6121 57.1818 49.3387C57.1595 48.0653 56.1092 47.0511 54.8359 47.0733C53.6771 47.0935 52.7329 47.9651 52.5891 49.0814C52.5884 49.0869 52.5877 49.0923 52.587 49.0978C52.5862 49.1047 52.5854 49.1116 52.5846 49.1185C52.5735 49.217 52.5687 49.3174 52.5704 49.4192ZM56.9604 36.6576C56.9382 35.3842 57.9524 34.3339 59.2258 34.3117C60.4992 34.2894 61.5495 35.3037 61.5717 36.5771C61.594 37.8505 60.5797 38.9008 59.3063 38.923C58.552 38.9362 57.8759 38.5856 57.4455 38.0329C57.1494 37.6526 56.9695 37.1766 56.9604 36.6576ZM51.2095 24.3036C51.1873 23.0302 52.2015 21.9799 53.4749 21.9577C54.7483 21.9355 55.7986 22.9497 55.8208 24.2231C55.8431 25.4965 54.8288 26.5468 53.5554 26.569C53.5142 26.5698 53.4732 26.5694 53.4325 26.568C52.2151 26.5253 51.231 25.5358 51.2095 24.3036Z" stroke="#FAFAFA" stroke-width="2.48201"/>
</svg>
