<svg width="434" height="72" viewBox="0 0 434 72" fill="none" xmlns="http://www.w3.org/2000/svg">
<path d="M7.98094 43.6649L11.8719 37.1209L9.17074 24.3949M9.17074 24.3949L5.76384 20.5523M9.17074 24.3949L18.0933 34.4589M18.0933 34.4589L27.8272 45.4378M18.0933 34.4589L18.7196 37.4892M18.7196 37.4892L21.6738 51.7823L21.8535 52.4092L27.2991 55.4278M18.7196 37.4892L13.9123 46.1618L15.2024 53.4683M5.42444 16.8838C6.53834 17.5012 6.94073 18.9048 6.32333 20.0187C6.23883 20.1711 6.13953 20.3102 6.02843 20.4352C5.32713 21.2236 4.14994 21.4505 3.18844 20.9176C2.07454 20.3001 1.67213 18.8966 2.28953 17.7827C2.90693 16.6688 4.31054 16.2664 5.42444 16.8838ZM30.4249 45.0321C31.5388 45.6496 31.9413 47.0531 31.3238 48.167C30.7064 49.2809 29.3029 49.6833 28.189 49.0659C27.0751 48.4485 26.6726 47.0449 27.2901 45.931C27.4491 45.6442 27.6602 45.4045 27.9051 45.2173C28.6112 44.6775 29.5979 44.5737 30.4249 45.0321ZM7.89103 43.3514C6.77713 42.7339 5.37354 43.1364 4.75614 44.2503C4.13874 45.3642 4.54113 46.7677 5.65503 47.3851C6.76893 48.0026 8.17244 47.6001 8.78994 46.4862C9.35174 45.4726 9.06904 44.2191 8.17424 43.5364C8.16984 43.533 8.16543 43.5297 8.16113 43.5264C8.15553 43.5223 8.14993 43.5181 8.14433 43.514C8.06453 43.4551 7.98003 43.4007 7.89103 43.3514ZM16.7479 53.534C17.8618 54.1515 18.2642 55.555 17.6468 56.6689C17.0293 57.7828 15.6258 58.1852 14.5119 57.5678C13.398 56.9503 12.9956 55.5468 13.613 54.4329C13.9788 53.7731 14.6204 53.3629 15.3142 53.2665C15.7917 53.2001 16.2938 53.2823 16.7479 53.534ZM30.3222 54.7306C31.4361 55.348 31.8385 56.7515 31.2211 57.8654C30.6036 58.9793 29.2001 59.3818 28.0862 58.7643C26.9723 58.1469 26.5699 56.7434 27.1873 55.6295C27.2073 55.5934 27.2281 55.5581 27.2497 55.5235C27.8953 54.4906 29.2443 54.1331 30.3222 54.7306Z" stroke="#00629B" stroke-width="2.48201"/>
<path d="M37.2323 8.94772L40.9539 15.5894L53.3256 19.6131M53.3256 19.6131L58.3569 18.584M53.3256 19.6131L40.1486 22.3084M40.1486 22.3084L25.7737 25.2487M40.1486 22.3084L37.2112 21.3356M37.2112 21.3356L23.3559 16.7474L22.7231 16.5896L17.3861 19.7964M37.2112 21.3356L32.1041 12.8361L25.1315 10.3M61.7036 20.1243C60.6119 20.7802 59.1952 20.427 58.5393 19.3353C58.4495 19.1859 58.3786 19.0304 58.326 18.8716C57.9938 17.8701 58.3859 16.7372 59.3282 16.171C60.4199 15.5151 61.8366 15.8683 62.4925 16.96C63.1485 18.0516 62.7952 19.4683 61.7036 20.1243ZM24.8261 27.7012C23.7345 28.3572 22.3177 28.0039 21.6618 26.9123C21.0059 25.8206 21.3591 24.4039 22.4508 23.7479C23.5424 23.092 24.9591 23.4452 25.6151 24.5369C25.784 24.818 25.886 25.1207 25.9257 25.4264C26.0401 26.3078 25.6367 27.2142 24.8261 27.7012ZM37.5487 9.02662C38.6404 8.37072 38.9936 6.95402 38.3376 5.86232C37.6817 4.77062 36.265 4.41742 35.1733 5.07342C34.0817 5.72932 33.7284 7.14602 34.3844 8.23772C34.9813 9.23112 36.2082 9.61302 37.2469 9.17942C37.2519 9.17732 37.257 9.17512 37.262 9.17302C37.2684 9.17032 37.2748 9.16752 37.2812 9.16472C37.372 9.12512 37.4614 9.07912 37.5487 9.02662ZM24.3018 11.6056C23.2101 12.2616 21.7934 11.9083 21.1375 10.8167C20.4815 9.72502 20.8348 8.30832 21.9264 7.65232C23.0181 6.99642 24.4348 7.34962 25.0908 8.44132C25.4793 9.08802 25.5138 9.84872 25.2503 10.4978C25.0691 10.9445 24.7468 11.3382 24.3018 11.6056ZM16.4784 22.763C15.3868 23.419 13.97 23.0657 13.3141 21.9741C12.6582 20.8824 13.0114 19.4657 14.1031 18.8098C15.1947 18.1538 16.6114 18.507 17.2674 19.5987C17.2886 19.634 17.3088 19.6697 17.3279 19.7057C17.8997 20.7813 17.5347 22.1283 16.4784 22.763Z" stroke="#00629B" stroke-width="2.48201"/>
<path d="M52.7967 51.9284L45.1841 51.8307L35.5136 60.533M35.5136 60.533L33.8892 65.4047M35.5136 60.533L39.7679 47.7737M39.7679 47.7737L44.409 33.8546M39.7679 47.7737L42.0791 45.7162M42.0791 45.7162L52.9802 36.0113L53.4333 35.5421L53.3245 29.3168M42.0791 45.7162L51.9933 45.5432L57.6761 40.7727M30.882 67.5329C30.8597 66.2595 31.874 65.2093 33.1474 65.187C33.3216 65.184 33.4917 65.2004 33.6556 65.2341C34.689 65.4473 35.4741 66.3533 35.4933 67.4524C35.5155 68.7258 34.5012 69.7761 33.2279 69.7983C31.9545 69.8206 30.9042 68.8063 30.882 67.5329ZM42.7589 31.8076C42.7366 30.5343 43.7508 29.484 45.0242 29.4617C46.2975 29.4395 47.3478 30.4538 47.3701 31.7272C47.3923 33.0005 46.3781 34.0508 45.1048 34.0731C44.7768 34.0788 44.4637 34.0158 44.1791 33.8973C43.3586 33.5557 42.7754 32.7531 42.7589 31.8076ZM52.5702 52.163C52.5925 53.4364 53.6427 54.4507 54.916 54.4284C56.1894 54.4062 57.2038 53.3559 57.1816 52.0825C57.1593 50.8091 56.1089 49.7949 54.8356 49.8171C53.6768 49.8373 52.7327 50.7089 52.5889 51.8252C52.5882 51.8307 52.5874 51.8361 52.5867 51.8416C52.5859 51.8485 52.5852 51.8554 52.5844 51.8623C52.5733 51.9608 52.5685 52.0612 52.5702 52.163ZM56.9602 39.4014C56.938 38.128 57.9521 37.0777 59.2255 37.0555C60.4989 37.0332 61.5493 38.0475 61.5715 39.3209C61.5938 40.5943 60.5794 41.6446 59.306 41.6668C58.5517 41.68 57.8757 41.3294 57.4453 40.7767C57.1492 40.3964 56.9693 39.9204 56.9602 39.4014ZM51.2093 27.0474C51.1871 25.774 52.2012 24.7237 53.4746 24.7015C54.748 24.6793 55.7984 25.6935 55.8206 26.9669C55.8429 28.2403 54.8285 29.2906 53.5551 29.3128C53.5139 29.3136 53.473 29.3132 53.4323 29.3118C52.2149 29.2691 51.2308 28.2796 51.2093 27.0474Z" stroke="#00629B" stroke-width="2.48201"/>
<path d="M93.3996 0.5947L93.6286 0.8235C93.4916 6.8625 93.3536 12.9474 93.3536 18.9864C93.3536 20.725 93.3536 22.6922 93.8576 24.1105C94.4516 25.849 95.6876 26.947 97.8376 26.947C98.6616 26.947 99.9426 26.8098 100.995 25.7575C102.413 24.3393 102.413 22.0517 102.413 18.7119C102.413 10.6141 102.276 6.0848 102.093 0.915L102.322 0.732L110.694 0.5947L110.968 0.7777L110.74 19.6269L110.694 21.3655C110.511 24.751 110.328 28.7771 106.576 31.3848C104.609 32.7573 101.361 33.7181 97.1976 33.7181C93.9026 33.7181 88.5956 33.1234 85.8966 29.7378C83.7466 27.0843 83.6546 23.653 83.5636 20.7707V19.3524C83.5636 9.9736 83.5176 8.1436 83.3806 0.9607L83.5636 0.732C87.8186 0.732 88.9616 0.732 93.3996 0.5947ZM140.11 32.0711L139.881 32.3456C137.41 33.0776 135.306 33.7181 131.92 33.7181C126.385 33.7181 123.091 32.2998 120.803 30.4698C116.365 26.9013 115.313 21.4112 115.313 17.2937C115.313 5.9933 122.038 0.0457001 131.737 0.0457001C135.763 0.0457001 138.097 1.0065 139.972 1.7385L140.155 2.0587C139.881 5.2613 139.835 6.2678 139.744 9.6076L139.423 9.7906C138.508 9.0128 136.816 7.5488 133.567 7.5488C129.953 7.5488 125.653 9.7906 125.653 16.8819C125.653 24.2935 130.273 26.215 133.979 26.215C137.227 26.215 139.103 24.8425 140.064 24.1562L140.43 24.3393L140.11 32.0711ZM144.251 24.385L144.663 24.2477C144.983 24.5223 145.303 24.7968 145.669 25.0255C147.499 26.3523 150.336 26.947 152.394 26.947C156.512 26.947 156.924 24.7053 156.924 23.9275C156.924 22.1432 155.048 21.3655 153.675 20.7707L151.388 19.8557C148.231 18.4374 143.931 16.4702 143.931 10.2023C143.931 7.6861 144.525 5.0325 146.859 2.8365C149.055 0.8235 151.891 0 156.009 0C160.675 0 163.375 1.1895 164.747 1.7842L164.93 2.0587L164.518 9.1958L164.107 9.3788C163.466 8.8756 162.826 8.3723 162.094 7.9606C160.538 7.0455 158.662 6.588 157.198 6.588C155.505 6.588 154.865 7.0455 154.545 7.2743C153.996 7.7318 153.538 8.5553 153.538 9.3788C153.538 11.1173 155.597 11.9409 156.603 12.3526L159.12 13.4049C159.898 13.7251 162.048 14.5029 163.969 16.2872C166.303 18.4374 166.623 21.1825 166.623 22.8752C166.623 25.9405 165.205 28.228 164.793 28.8686C162.094 32.8488 157.427 33.7181 152.806 33.7181C148.231 33.7181 145.623 32.7116 144.297 32.2083L143.931 31.7508C144.159 28.2738 144.205 27.7248 144.251 24.385ZM194.394 32.0711L194.165 32.3456C191.695 33.0776 189.59 33.7181 186.204 33.7181C180.669 33.7181 177.375 32.2998 175.087 30.4698C170.649 26.9013 169.597 21.4112 169.597 17.2937C169.597 5.9933 176.322 0.0457001 186.021 0.0457001C190.047 0.0457001 192.381 1.0065 194.257 1.7385L194.44 2.0587C194.165 5.2613 194.119 6.2678 194.028 9.6076L193.708 9.7906C192.793 9.0128 191.1 7.5488 187.851 7.5488C184.237 7.5488 179.937 9.7906 179.937 16.8819C179.937 24.2935 184.557 26.215 188.263 26.215C191.512 26.215 193.387 24.8425 194.348 24.1562L194.714 24.3393L194.394 32.0711Z" fill="#00629B"/>
<path d="M88.2568 43.0139L88.5308 43.2879C88.4138 45.9105 88.3358 49.0027 88.3358 55.7351C88.3358 63.2504 88.4138 66.4601 88.6488 70.4917L88.4138 70.7657C86.6918 70.8048 86.1438 70.8048 84.0688 70.8831L83.8338 70.6091C83.9128 68.2215 83.9908 66.1469 83.9908 61.0976C83.9908 55.1871 83.9908 49.3158 83.7168 43.4445L83.9128 43.1314C85.6348 43.1314 86.2608 43.1314 88.2568 43.0139ZM111.937 67.2821L112.172 67.556C112.055 68.8869 112.055 69.1609 111.976 70.4917L111.702 70.7657C104.07 70.7657 102.856 70.8048 95.4188 70.8831L95.2228 70.6091C95.3408 67.5169 95.4578 65.4032 95.4578 58.2402C95.4578 51.6643 95.4578 47.9067 95.1838 43.4054L95.4188 43.1314C103.13 43.0922 104.657 43.0922 111.859 43.0139L112.094 43.2879C111.976 44.4622 111.898 44.9319 111.82 46.341L111.585 46.615C106.535 46.4584 104.852 46.4584 99.8808 46.4193C99.7638 50.0204 99.7638 51.1555 99.7638 54.7566C104.578 54.7957 106.066 54.7566 110.841 54.6783L111.037 54.9523C110.88 56.3223 110.88 56.7137 110.841 57.9662L110.606 58.2402C106.066 58.1228 105.087 58.1228 99.7638 58.1228C99.6858 62.6633 99.7248 63.7593 99.7638 67.4778C105.674 67.4778 106.888 67.4778 111.937 67.2821ZM133.152 67.2821L133.387 67.556C133.269 68.8869 133.269 69.1609 133.191 70.4917L132.917 70.7657C125.284 70.7657 124.071 70.8048 116.634 70.8831L116.438 70.6091C116.556 67.5169 116.673 65.4032 116.673 58.2402C116.673 51.6643 116.673 47.9067 116.399 43.4054L116.634 43.1314C124.345 43.0922 125.871 43.0922 133.074 43.0139L133.308 43.2879C133.191 44.4622 133.113 44.9319 133.034 46.341L132.8 46.615C127.75 46.4584 126.067 46.4584 121.096 46.4193C120.979 50.0204 120.979 51.1555 120.979 54.7566C125.793 54.7957 127.28 54.7566 132.056 54.6783L132.252 54.9523C132.095 56.3223 132.095 56.7137 132.056 57.9662L131.821 58.2402C127.28 58.1228 126.302 58.1228 120.979 58.1228C120.9 62.6633 120.939 63.7593 120.979 67.4778C126.889 67.4778 128.102 67.4778 133.152 67.2821ZM154.367 67.2821L154.601 67.556C154.484 68.8869 154.484 69.1609 154.406 70.4917L154.132 70.7657C146.499 70.7657 145.286 70.8048 137.849 70.8831L137.653 70.6091C137.77 67.5169 137.888 65.4032 137.888 58.2402C137.888 51.6643 137.888 47.9067 137.614 43.4054L137.849 43.1314C145.56 43.0922 147.086 43.0922 154.288 43.0139L154.523 43.2879C154.406 44.4622 154.327 44.9319 154.249 46.341L154.014 46.615C148.965 46.4584 147.282 46.4584 142.311 46.4193C142.193 50.0204 142.193 51.1555 142.193 54.7566C147.008 54.7957 148.495 54.7566 153.271 54.6783L153.466 54.9523C153.31 56.3223 153.31 56.7137 153.271 57.9662L153.036 58.2402C148.495 58.1228 147.517 58.1228 142.193 58.1228C142.115 62.6633 142.154 63.7593 142.193 67.4778C148.104 67.4778 149.317 67.4778 154.367 67.2821ZM178.438 54.2477L180.395 55.1089C183.253 56.3614 187.05 58.0054 187.05 63.0156C187.05 67.3995 183.801 71.3528 176.99 71.3528C172.841 71.3528 170.179 70.1003 169.24 69.6306L169.083 69.3566C169.24 67.9866 169.279 67.2429 169.396 65.7555L169.788 65.5989C170.766 66.2644 173.037 67.9083 176.677 67.9083C180.709 67.9083 182.392 65.8338 182.392 63.4853C182.392 60.7453 180.121 59.6885 177.577 58.7099L175.62 57.8488C172.841 56.5571 169.122 54.874 169.122 50.0987C169.122 48.6504 169.514 47.163 170.336 45.9887C172.136 43.4054 175.385 42.5442 178.556 42.5442C181.648 42.5442 183.527 43.1314 185.601 43.7968L185.797 44.1099C185.64 45.5973 185.601 46.1453 185.484 47.5544L185.171 47.711C183.488 46.8499 181.648 45.9105 178.712 45.9105C175.464 45.9105 173.428 47.437 173.428 49.7464C173.428 51.5078 174.602 52.3298 175.424 52.8386C175.933 53.1517 176.09 53.23 178.438 54.2477ZM200.044 67.4386L200.318 67.6735C200.201 68.9652 200.201 69.2392 200.162 70.3743L199.966 70.6091C199.144 70.8048 198.479 70.9614 197.031 70.9614C196.091 70.9614 193.625 70.9614 192.412 68.926C191.707 67.7909 191.707 66.8515 191.707 62.2327L191.785 53.6215C190.416 53.6215 190.376 53.6606 188.967 53.6997L188.811 53.4649C188.889 52.2123 188.889 51.8992 188.889 50.6467L189.124 50.4118C189.985 50.4118 190.494 50.4509 191.785 50.4118C191.746 49.5898 191.746 48.7287 191.746 47.9067C191.707 47.163 191.668 46.4193 191.629 45.6756L191.825 45.4016C193.586 44.971 194.017 44.8536 195.817 44.3056L196.091 44.5013C195.974 47.0847 195.935 47.5936 195.935 50.4509C197.579 50.4118 198.048 50.4118 200.279 50.3335L200.475 50.5684C200.397 51.5861 200.358 52.0166 200.358 53.3475L200.162 53.5823C198.205 53.5432 197.97 53.504 195.895 53.504L195.817 60.7845C195.856 61.2542 195.856 63.4853 195.856 64.0333C195.856 66.8906 196.209 67.7909 198.166 67.7909C198.988 67.7909 199.614 67.5952 200.044 67.4386ZM220.691 50.2552L220.926 50.5292C220.848 53.504 220.808 56.2831 220.808 59.4536C220.808 64.2681 220.926 67.1646 221.004 68.8477C221.004 69.3957 221.043 69.9437 221.082 70.4917L220.926 70.7266C219.047 70.7657 218.734 70.8048 216.933 70.8831L216.699 70.6483L216.738 69.0043C215.877 69.6306 213.802 71.2354 210.592 71.2354C209.066 71.2354 207.383 70.8831 206.13 69.9046C203.625 67.8692 203.625 64.5421 203.586 61.489V59.0622C203.508 53.4649 203.508 52.8386 203.39 50.7249L203.586 50.4509C205.426 50.4118 205.778 50.4118 207.618 50.2552L207.852 50.5292L207.696 59.1013C207.696 60.1582 207.657 60.941 207.696 62.8198C207.735 64.4638 207.813 67.9866 211.767 67.9866C214.076 67.9866 215.72 66.6949 216.659 65.9512C216.699 63.8375 216.699 62.037 216.699 59.7668C216.699 54.326 216.659 53.23 216.425 50.6858L216.659 50.4118C218.46 50.3727 218.89 50.3727 220.691 50.2552ZM239.362 40.5871L239.558 40.3523C241.554 40 241.945 39.9217 243.707 39.5303L243.981 39.7651C243.707 45.2059 243.668 54.9131 243.668 58.8274C243.668 64.8944 243.824 67.7909 243.981 70.4917L243.785 70.7657C242.063 70.7657 241.593 70.8048 239.793 70.8831L239.519 70.6483L239.597 69.2C238.658 69.9046 237.053 71.1571 234.195 71.1571C228.989 71.1571 225.388 67.0472 225.388 61.0976C225.388 56.8311 227.189 54.1303 228.833 52.682C231.69 50.0987 235.409 49.9812 237.444 49.9812C238.266 49.9812 238.658 49.9812 239.714 50.0595C239.754 45.2059 239.558 42.8574 239.362 40.5871ZM239.558 65.9512C239.636 60.8236 239.636 59.6493 239.597 53.23C238.932 53.1909 238.462 53.1126 237.64 53.1126C236.426 53.1126 233.843 53.1909 231.964 54.9523C231.103 55.7743 229.694 57.6139 229.694 61.0976C229.694 63.3287 230.32 64.9335 231.142 65.9121C231.847 66.7341 233.139 67.6735 235.174 67.6735C237.562 67.6735 239.01 66.4209 239.558 65.9512ZM265.196 65.7947L265.509 65.9904C265.314 67.556 265.275 67.9475 265.196 69.474L264.961 69.748C264.296 70.1003 262.182 71.2354 258.699 71.2354C252.279 71.2354 248.248 67.556 248.248 60.7453C248.248 53.4649 252.632 49.9029 257.759 49.9029C260.851 49.9029 263.004 51.1946 264.179 52.6038C266.41 55.2654 266.331 59.1405 266.292 60.8627L266.018 61.0976C259.912 61.0585 258.855 61.0585 252.436 61.0976C252.475 62.4676 252.592 64.3855 253.923 65.9904C255.528 67.9083 257.759 68.104 258.973 68.104C260.108 68.104 261.282 67.9083 262.378 67.5169C263.826 66.9298 264.687 66.2252 265.196 65.7947ZM262.261 58.0837C262.221 57.5357 262.182 56.6745 261.869 55.7743C261.086 53.6215 259.364 52.7212 257.603 52.7212C255.411 52.7212 252.827 54.2086 252.436 58.1228C257.172 58.1619 258.659 58.1228 262.261 58.0837ZM288.055 70.4917L287.82 70.7266C285.941 70.7657 285.706 70.7657 283.906 70.8831L283.632 70.6091C283.632 70.1786 283.671 69.748 283.671 69.3174C283.71 67.3995 283.71 65.4815 283.71 63.5635C283.71 57.5357 283.671 57.1442 283.475 56.3223C282.732 53.3475 280.5 53.3475 279.952 53.3475C277.604 53.3475 275.803 54.7174 274.747 55.5394C274.707 62.3501 274.786 65.9121 275.06 70.4917L274.825 70.7266C272.907 70.7657 272.594 70.7657 270.715 70.8831L270.519 70.6091C270.558 68.4172 270.637 66.3035 270.637 63.407C270.637 57.1442 270.363 53.8172 270.167 51.1946L270.402 50.9206C272.359 50.5684 272.711 50.4901 274.551 50.1378L274.825 50.4118L274.786 52.4472C275.803 51.7426 278.23 50.0204 281.675 50.0204C282.653 50.0204 283.867 50.1769 284.924 50.7641C285.941 51.3512 286.763 52.2515 287.194 53.3083C287.703 54.4826 287.742 55.6568 287.781 58.0837V62.6633C287.898 67.2429 287.937 69.0043 288.055 70.4917ZM301.99 67.4386L302.264 67.6735C302.146 68.9652 302.146 69.2392 302.107 70.3743L301.912 70.6091C301.09 70.8048 300.424 70.9614 298.976 70.9614C298.036 70.9614 295.571 70.9614 294.357 68.926C293.653 67.7909 293.653 66.8515 293.653 62.2327L293.731 53.6215C292.361 53.6215 292.322 53.6606 290.913 53.6997L290.756 53.4649C290.834 52.2123 290.834 51.8992 290.834 50.6467L291.069 50.4118C291.93 50.4118 292.439 50.4509 293.731 50.4118C293.692 49.5898 293.692 48.7287 293.692 47.9067C293.653 47.163 293.613 46.4193 293.574 45.6756L293.77 45.4016C295.531 44.971 295.962 44.8536 297.762 44.3056L298.036 44.5013C297.919 47.0847 297.88 47.5936 297.88 50.4509C299.524 50.4118 299.994 50.4118 302.225 50.3335L302.42 50.5684C302.342 51.5861 302.303 52.0166 302.303 53.3475L302.107 53.5823C300.15 53.5432 299.915 53.504 297.841 53.504L297.762 60.7845C297.802 61.2542 297.802 63.4853 297.802 64.0333C297.802 66.8906 298.154 67.7909 300.111 67.7909C300.933 67.7909 301.559 67.5952 301.99 67.4386ZM324.358 70.844L317.469 70.8831L317.274 70.6091C317.352 68.7303 317.391 66.9298 317.391 63.3678C317.391 61.6847 317.43 53.504 317.43 51.6643C317.43 47.5544 317.313 45.4407 317.156 43.4054L317.352 43.1314L322.597 43.0531C323.38 43.0139 324.593 43.0139 325.65 43.0139C327.959 43.0139 330.425 43.0922 332.382 44.2273C333.831 45.0493 335.475 46.6933 335.475 49.5898C335.475 50.9598 335.083 54.874 329.642 56.2048C330.543 56.244 331.834 56.2831 333.244 56.9094C336.61 58.3968 336.962 61.3716 336.962 62.8198C336.962 66.4209 334.731 68.9652 331.6 70.1003C329.525 70.844 327.451 70.844 324.358 70.844ZM322.636 58.2011L321.697 58.2402C321.697 62.7024 321.697 63.3678 321.853 67.6343H322.597C325.533 67.6343 327.92 67.6735 329.447 67.0472C331.326 66.3426 332.382 64.6987 332.382 62.7416C332.382 58.1619 327.333 58.1228 325.454 58.1228C325.102 58.1228 324.75 58.1228 322.636 58.2011ZM321.697 46.2627V54.9523C325.219 54.9914 327.92 54.9523 329.564 53.6606C330.543 52.8386 331.169 51.5469 331.169 50.2552C331.169 49.1984 330.738 48.1807 330.073 47.4761C328.703 46.1453 326.276 46.1453 325.376 46.1453C324.123 46.1453 322.91 46.1844 321.697 46.2627ZM350.858 54.2869L350.584 54.4826C350.192 54.326 349.683 54.1303 349.018 54.1303C348.274 54.1303 347.726 54.4043 347.374 54.6391C345.769 55.7743 345.769 57.4965 345.769 61.5673C345.769 65.9904 345.886 68.2997 346.043 70.4917L345.847 70.7657C344.008 70.7657 343.577 70.8048 341.698 70.8831L341.503 70.6483C341.542 67.6735 341.581 64.9727 341.581 61.3324C341.581 55.0697 341.463 53.4649 341.229 51.1946L341.463 50.9206C342.951 50.6467 343.89 50.4509 345.534 50.1378L345.769 50.3727L345.573 53.6997C346.043 52.4472 347.022 49.9421 350.349 49.9421C350.858 49.9421 351.132 49.9812 351.445 50.0595L351.601 50.2944C351.21 52.1732 351.132 52.5646 350.858 54.2869ZM369.45 58.8274V62.7024C369.45 67.556 369.489 67.9866 369.685 70.5308L369.489 70.7266C367.65 70.7657 367.337 70.8048 365.536 70.8831L365.38 70.6483L365.419 69.2392C364.675 69.8263 362.914 71.2354 359.939 71.2354C356.025 71.2354 353.285 68.5737 353.285 64.6987C353.285 59.4536 357.669 57.7705 364.714 56.9485L365.38 56.8702C365.38 55.8134 365.38 55.0697 365.027 54.4434C364.636 53.7389 363.736 52.9952 361.778 52.9952C359.234 52.9952 357.473 53.778 355.829 54.4826L355.516 54.2869C355.594 52.4863 355.594 52.2515 355.633 51.4295L355.868 51.1946C358.06 50.4118 360.33 49.9029 362.64 49.9029C365.536 49.9029 368.354 50.8815 369.176 53.9346C369.45 55.0306 369.45 57.1834 369.45 58.8274ZM365.419 59.7668L365.066 59.845C361.113 60.4322 357.434 60.9802 357.434 64.4638C357.434 64.6595 357.434 68.0258 361.152 68.0258C363.579 68.0258 364.988 66.6949 365.419 66.3035V59.7668ZM392.485 70.4917L392.25 70.7266C390.371 70.7657 390.136 70.7657 388.336 70.8831L388.062 70.6091C388.062 70.1786 388.101 69.748 388.101 69.3174C388.14 67.3995 388.14 65.4815 388.14 63.5635C388.14 57.5357 388.101 57.1442 387.905 56.3223C387.162 53.3475 384.93 53.3475 384.382 53.3475C382.034 53.3475 380.233 54.7174 379.177 55.5394C379.137 62.3501 379.216 65.9121 379.49 70.4917L379.255 70.7266C377.337 70.7657 377.024 70.7657 375.145 70.8831L374.949 70.6091C374.988 68.4172 375.067 66.3035 375.067 63.407C375.067 57.1442 374.793 53.8172 374.597 51.1946L374.832 50.9206C376.789 50.5684 377.141 50.4901 378.981 50.1378L379.255 50.4118L379.216 52.4472C380.233 51.7426 382.66 50.0204 386.105 50.0204C387.083 50.0204 388.297 50.1769 389.353 50.7641C390.371 51.3512 391.193 52.2515 391.624 53.3083C392.133 54.4826 392.172 55.6568 392.211 58.0837V62.6633C392.328 67.2429 392.367 69.0043 392.485 70.4917ZM412.135 65.9512L412.448 66.1078C412.291 67.7909 412.252 67.9866 412.135 69.5914L411.861 69.8654C410.725 70.4134 409.199 71.1963 406.459 71.1963C400.548 71.1963 396.713 66.9298 396.713 60.8236C396.713 54.6 400.47 49.9029 406.537 49.9029C409.081 49.9029 410.882 50.7249 411.9 51.1555L412.056 51.4295C411.9 52.8386 411.861 53.3475 411.782 54.5217L411.469 54.6783C410.177 53.7389 408.69 53.1517 407.124 53.1517C403.876 53.1517 401.018 55.6568 401.018 60.667C401.018 65.9904 404.032 67.9083 407.085 67.9083C409.747 67.9083 411.391 66.5384 412.135 65.9512ZM433.232 70.4917L432.998 70.7266C431.119 70.7657 430.884 70.7657 429.083 70.8831L428.809 70.6091L428.848 69.3174C428.888 67.2821 428.888 65.2075 428.888 63.1721L428.848 58.9839C428.848 58.0837 428.848 57.1834 428.653 56.3223C428.222 54.5217 427.126 53.3475 425.13 53.3475C422.899 53.3475 421.177 54.6 419.885 55.5394C419.846 62.3501 419.924 65.9121 420.159 70.4917L419.963 70.7266C418.163 70.7657 417.693 70.7657 415.775 70.8831L415.579 70.6091C415.658 67.83 415.775 64.3073 415.775 56.792C415.775 53.504 415.736 50.2161 415.697 46.9281C415.618 43.4836 415.501 42.3485 415.384 40.5871L415.579 40.3523C417.458 40.0391 418.084 39.9217 419.846 39.5303L420.081 39.8043C419.846 43.9925 419.846 48.2198 419.846 52.4472C421.098 51.6252 423.564 50.0204 426.852 50.0204C427.753 50.0204 428.653 50.1378 429.475 50.4901C431.236 51.1946 432.293 52.6038 432.684 54.2086C432.88 54.9914 432.88 55.4611 432.958 58.0837V62.6633L432.998 64.503C433.076 67.7909 433.076 68.3389 433.232 70.4917Z" fill="#00629B"/>
</svg>
